<?xml version="1.0" encoding="utf-8"?>
<!-- Generator: Adobe Illustrator 21.1.0, SVG Export Plug-In . SVG Version: 6.00 Build 0)  -->
<svg version="1.1" id="Layer_1" xmlns="http://www.w3.org/2000/svg" xmlns:xlink="http://www.w3.org/1999/xlink" x="0px" y="0px"
	 viewBox="0 0 512 512" style="enable-background:new 0 0 512 512;" xml:space="preserve">
<path d="M465.6,247l-29.4-49.4c-19.2-32.2-50.6-51.9-87.2-55.2V81c0-8.3-6.7-15-15-15H15C6.7,66,0,72.7,0,81v303.2
	c0,8.3,6.7,15,15,15h34.2c5.4,26.1,28.6,45.8,56.3,45.8s50.9-19.7,56.3-45.8H334c0.8,0,1.6-0.1,2.3-0.2h21.8
	c5.3,26.2,28.6,46,56.3,46s51-19.8,56.3-46H497c8.3,0,15-6.7,15-15v-90C512,268.3,491.2,247.3,465.6,247z M105.5,415
	C90.3,415,78,402.7,78,387.5S90.3,360,105.5,360s27.5,12.3,27.5,27.5S120.7,415,105.5,415z M319,369.2H160
	c-7.7-22.8-29.2-39.2-54.5-39.2S58.7,346.4,51,369.2H30V96h289V369.2z M414.5,415c-15.2,0-27.5-12.3-27.5-27.5s12.3-27.5,27.5-27.5
	s27.5,12.3,27.5,27.5S429.7,415,414.5,415z M482,369h-13.1c-7.7-22.7-29.2-39-54.4-39s-46.7,16.3-54.4,39H349V172.6
	c26,3,47.5,17.1,61.4,40.4l20.3,34H390c-8.3,0-15,6.7-15,15s6.7,15,15,15h75c9.4,0,17,7.6,17,17V369z"/>
</svg>
